<svg width="652" height="650" viewBox="0 0 652 650" fill="none" xmlns="http://www.w3.org/2000/svg">
<g filter="url(#filter0_dii_1_2)">
<mask id="mask0_1_2" style="mask-type:alpha" maskUnits="userSpaceOnUse" x="80" y="50" width="512" height="512">
<rect x="80" y="50" width="512" height="512" rx="113" fill="#14272C"/>
</mask>
<g mask="url(#mask0_1_2)">
<rect x="80" y="50" width="512" height="512" rx="113" fill="#1E1E1E"/>
<path d="M236.824 378.002C247.468 378.024 256.113 376.869 262.759 374.539C275.365 370.072 281.681 361.735 281.705 349.528C281.72 342.399 278.606 336.875 272.364 332.956C266.121 329.135 256.314 325.746 242.941 322.79L220.099 317.617C197.649 312.494 182.132 306.945 173.551 300.971C159.02 290.981 151.776 275.39 151.818 254.199C151.857 234.863 158.92 218.812 173.009 206.048C187.097 193.283 207.764 186.928 235.01 186.983C257.764 187.028 277.136 193.122 293.128 205.263C309.217 217.307 317.629 234.805 318.364 257.755L275.005 257.668C274.25 244.679 268.604 235.439 258.068 229.949C251.044 226.321 242.308 224.497 231.858 224.476C220.237 224.453 210.955 226.778 204.012 231.452C197.069 236.125 193.589 242.661 193.573 251.06C193.557 258.775 196.964 264.543 203.792 268.365C208.181 270.913 217.55 273.911 231.899 277.357L269.088 286.368C285.389 290.307 297.683 295.556 305.97 302.115C318.841 312.297 325.256 327.008 325.218 346.246C325.178 365.972 317.577 382.363 302.414 395.419C287.349 408.377 266.047 414.829 238.508 414.773C210.383 414.717 188.277 408.276 172.189 395.451C156.102 382.528 148.081 364.836 148.126 342.375L191.192 342.461C192.539 352.327 195.21 359.706 199.204 364.597C206.511 373.498 219.05 377.967 236.824 378.002ZM436.921 378.404C447.566 378.425 456.211 377.27 462.856 374.94C475.463 370.473 481.778 362.136 481.803 349.929C481.817 342.8 478.703 337.276 472.461 333.358C466.218 329.537 456.411 326.148 443.038 323.191L420.197 318.018C397.746 312.895 382.23 307.347 373.648 301.372C359.117 291.382 351.873 275.791 351.915 254.6C351.954 235.264 359.018 219.214 373.106 206.449C387.194 193.684 407.861 187.329 435.107 187.384C457.861 187.43 477.234 193.523 493.225 205.665C509.314 217.709 517.726 235.206 518.461 258.157L475.102 258.07C474.347 245.08 468.701 235.84 458.165 230.35C451.142 226.723 442.405 224.899 431.956 224.878C420.335 224.854 411.053 227.18 404.11 231.853C397.167 236.527 393.687 243.063 393.67 251.461C393.654 259.176 397.061 264.945 403.889 268.767C408.279 271.315 417.648 274.312 431.996 277.759L469.185 286.769C485.486 290.708 497.78 295.957 506.068 302.517C518.938 312.699 525.354 327.409 525.315 346.647C525.276 366.374 517.674 382.765 502.511 395.82C487.446 408.779 466.144 415.23 438.605 415.175C410.48 415.118 388.374 408.677 372.286 395.852C356.199 382.929 348.178 365.237 348.223 342.776L391.289 342.863C392.637 352.729 395.307 360.107 399.301 364.998C406.608 373.899 419.148 378.368 436.921 378.404Z" fill="white"/>
<path d="M236.824 378.002C247.468 378.024 256.113 376.869 262.759 374.539C275.365 370.072 281.681 361.735 281.705 349.528C281.72 342.399 278.606 336.875 272.364 332.956C266.121 329.135 256.314 325.746 242.941 322.79L220.099 317.617C197.649 312.494 182.132 306.945 173.551 300.971C159.02 290.981 151.776 275.39 151.818 254.199C151.857 234.863 158.92 218.812 173.009 206.048C187.097 193.283 207.764 186.928 235.01 186.983C257.764 187.028 277.136 193.122 293.128 205.263C309.217 217.307 317.629 234.805 318.364 257.755L275.005 257.668C274.25 244.679 268.604 235.439 258.068 229.949C251.044 226.321 242.308 224.497 231.858 224.476C220.237 224.453 210.955 226.778 204.012 231.452C197.069 236.125 193.589 242.661 193.573 251.06C193.557 258.775 196.964 264.543 203.792 268.365C208.181 270.913 217.55 273.911 231.899 277.357L269.088 286.368C285.389 290.307 297.683 295.556 305.97 302.115C318.841 312.297 325.256 327.008 325.218 346.246C325.178 365.972 317.577 382.363 302.414 395.419C287.349 408.377 266.047 414.829 238.508 414.773C210.383 414.717 188.277 408.276 172.189 395.451C156.102 382.528 148.081 364.836 148.126 342.375L191.192 342.461C192.539 352.327 195.21 359.706 199.204 364.597C206.511 373.498 219.05 377.967 236.824 378.002ZM436.921 378.404C447.566 378.425 456.211 377.27 462.856 374.94C475.463 370.473 481.778 362.136 481.803 349.929C481.817 342.8 478.703 337.276 472.461 333.358C466.218 329.537 456.411 326.148 443.038 323.191L420.197 318.018C397.746 312.895 382.23 307.347 373.648 301.372C359.117 291.382 351.873 275.791 351.915 254.6C351.954 235.264 359.018 219.214 373.106 206.449C387.194 193.684 407.861 187.329 435.107 187.384C457.861 187.43 477.234 193.523 493.225 205.665C509.314 217.709 517.726 235.206 518.461 258.157L475.102 258.07C474.347 245.08 468.701 235.84 458.165 230.35C451.142 226.723 442.405 224.899 431.956 224.878C420.335 224.854 411.053 227.18 404.11 231.853C397.167 236.527 393.687 243.063 393.67 251.461C393.654 259.176 397.061 264.945 403.889 268.767C408.279 271.315 417.648 274.312 431.996 277.759L469.185 286.769C485.486 290.708 497.78 295.957 506.068 302.517C518.938 312.699 525.354 327.409 525.315 346.647C525.276 366.374 517.674 382.765 502.511 395.82C487.446 408.779 466.144 415.23 438.605 415.175C410.48 415.118 388.374 408.677 372.286 395.852C356.199 382.929 348.178 365.237 348.223 342.776L391.289 342.863C392.637 352.729 395.307 360.107 399.301 364.998C406.608 373.899 419.148 378.368 436.921 378.404Z" fill="url(#paint0_linear_1_2)"/>
<g opacity="0.4" filter="url(#filter1_f_1_2)">
<path d="M577.5 166C577.5 110.5 543.333 93.1667 535.5 84.5C541.167 97.6667 558 138.5 558 166L558 431.5C558 459.9 548.333 508.667 545 523C550.5 514.167 577.5 497.5 577.5 431.5L577.5 166Z" fill="white"/>
</g>
<g opacity="0.8" filter="url(#filter2_f_1_2)">
<path d="M191 64.5C163.8 64.5 139.667 80.1667 131 88C144.167 82.3333 164.5 71 191 71H456.5C484.9 71 520.667 77.6667 535 81C526.167 75.5 498.1 64.5 456.5 64.5H191Z" fill="white"/>
</g>
</g>
</g>
<defs>
<filter id="filter0_dii_1_2" x="0" y="0" width="652" height="652" filterUnits="userSpaceOnUse" color-interpolation-filters="sRGB">
<feFlood flood-opacity="0" result="BackgroundImageFix"/>
<feColorMatrix in="SourceAlpha" type="matrix" values="0 0 0 0 0 0 0 0 0 0 0 0 0 0 0 0 0 0 127 0" result="hardAlpha"/>
<feOffset dx="-10" dy="20"/>
<feGaussianBlur stdDeviation="35"/>
<feComposite in2="hardAlpha" operator="out"/>
<feColorMatrix type="matrix" values="0 0 0 0 0.0904167 0 0 0 0 0.105917 0 0 0 0 0.129167 0 0 0 1 0"/>
<feBlend mode="normal" in2="BackgroundImageFix" result="effect1_dropShadow_1_2"/>
<feBlend mode="normal" in="SourceGraphic" in2="effect1_dropShadow_1_2" result="shape"/>
<feColorMatrix in="SourceAlpha" type="matrix" values="0 0 0 0 0 0 0 0 0 0 0 0 0 0 0 0 0 0 127 0" result="hardAlpha"/>
<feOffset dx="20" dy="-20"/>
<feGaussianBlur stdDeviation="15"/>
<feComposite in2="hardAlpha" operator="arithmetic" k2="-1" k3="1"/>
<feColorMatrix type="matrix" values="0 0 0 0 0.003125 0 0 0 0 0.0666233 0 0 0 0 0.0833333 0 0 0 0.7 0"/>
<feBlend mode="normal" in2="shape" result="effect2_innerShadow_1_2"/>
<feColorMatrix in="SourceAlpha" type="matrix" values="0 0 0 0 0 0 0 0 0 0 0 0 0 0 0 0 0 0 127 0" result="hardAlpha"/>
<feOffset dx="-10" dy="10"/>
<feGaussianBlur stdDeviation="10"/>
<feComposite in2="hardAlpha" operator="arithmetic" k2="-1" k3="1"/>
<feColorMatrix type="matrix" values="0 0 0 0 0 0 0 0 0 0.0692708 0 0 0 0 0.0875 0 0 0 0.9 0"/>
<feBlend mode="normal" in2="effect2_innerShadow_1_2" result="effect3_innerShadow_1_2"/>
</filter>
<filter id="filter1_f_1_2" x="518.5" y="67.5" width="76" height="472.5" filterUnits="userSpaceOnUse" color-interpolation-filters="sRGB">
<feFlood flood-opacity="0" result="BackgroundImageFix"/>
<feBlend mode="normal" in="SourceGraphic" in2="BackgroundImageFix" result="shape"/>
<feGaussianBlur stdDeviation="8.5" result="effect1_foregroundBlur_1_2"/>
</filter>
<filter id="filter2_f_1_2" x="127" y="60.5" width="412" height="31.5" filterUnits="userSpaceOnUse" color-interpolation-filters="sRGB">
<feFlood flood-opacity="0" result="BackgroundImageFix"/>
<feBlend mode="normal" in="SourceGraphic" in2="BackgroundImageFix" result="shape"/>
<feGaussianBlur stdDeviation="2" result="effect1_foregroundBlur_1_2"/>
</filter>
<linearGradient id="paint0_linear_1_2" x1="114.128" y1="345.503" x2="555.105" y2="270.654" gradientUnits="userSpaceOnUse">
<stop stop-color="#9A9A9A"/>
<stop offset="1" stop-color="white"/>
</linearGradient>
</defs>
</svg>
